<svg width="40" height="66" viewBox="0 0 40 66" fill="none" xmlns="http://www.w3.org/2000/svg">
<path d="M39.0765 0L6.02649 15.6353L1.94531 23.2166L24.5118 12.224L36.4357 25.2065V18.0996L28.2733 9.0969L39.0765 0Z" fill="white"/>
<path d="M24.5941 13.2354L1.94531 25.618L7.30918 28.4608L24.5941 13.2354Z" fill="#34495E"/>
<path d="M0 25.2065H8.803L23.4737 41.536L0 25.2065Z" fill="white"/>
<path d="M0 65.0601L33.05 49.4248L37.1311 41.8435L14.5647 52.8361L2.64076 39.8535V46.9605L10.8031 55.9632L0 65.0601Z" fill="white"/>
<path d="M14.4834 51.8245L37.1308 39.4419L31.7684 36.5991L14.4834 51.8245Z" fill="#34495E"/>
<path d="M39.0772 39.8536H30.2742L15.6035 23.5225L39.0772 39.8536Z" fill="white"/>
</svg>
